<?xml version="1.0" encoding="iso-8859-1"?>
<!-- Generator: Adobe Illustrator 16.0.0, SVG Export Plug-In . SVG Version: 6.00 Build 0)  -->
<!DOCTYPE svg PUBLIC "-//W3C//DTD SVG 1.1//EN" "http://www.w3.org/Graphics/SVG/1.1/DTD/svg11.dtd">
<svg version="1.1" id="Capa_1" xmlns="http://www.w3.org/2000/svg" xmlns:xlink="http://www.w3.org/1999/xlink" x="0px" y="0px"
	 width="472.964px" height="472.964px" viewBox="0 0 472.964 472.964" style="enable-background:new 0 0 472.964 472.964;"
	 xml:space="preserve">
<g>
	<g>
		<g>
			<path d="M251.339,118.729c-0.253-0.588-0.411-1.231-0.442-1.872l-2.162-39.448H224.25l-2.16,39.448
				c-0.031,0.641-0.185,1.273-0.442,1.872l-5.25,12.015h40.194L251.339,118.729z"/>
			<path d="M242.596,58.946c-0.369-0.664-0.611-1.405-0.686-2.164L236.493,0l-5.432,56.782c-0.071,0.772-0.309,1.5-0.686,2.164
				l-4.38,7.668h20.988L242.596,58.946z"/>
			<path d="M266.295,310.595c-1.171-1.002-1.867-2.436-1.909-3.96l-4.804-165.09h-46.206l-4.796,165.08
				c-0.047,1.524-0.746,2.975-1.912,3.961l-12.145,10.272h83.916L266.295,310.595z M254.494,300.164c0,2.985-2.416,5.4-5.4,5.4
				c-2.99,0-5.4-2.415-5.4-5.4V158.868c0-2.985,2.41-5.4,5.4-5.4c2.984,0,5.4,2.415,5.4,5.4V300.164z"/>
		</g>
		<path d="M209.487,342.468c-2.987,0-5.399,2.415-5.399,5.4v34.198c0,2.989,2.412,5.399,5.399,5.399c2.988,0,5.4-2.41,5.4-5.399
			v-34.198C214.887,344.883,212.466,342.468,209.487,342.468z"/>
		<path d="M230.191,342.468c-2.988,0-5.4,2.415-5.4,5.4v119.696c0,2.984,2.413,5.399,5.4,5.399c2.987,0,5.399-2.415,5.399-5.399
			V347.868C235.59,344.883,233.172,342.468,230.191,342.468z"/>
		<path d="M254.494,342.468c-2.99,0-5.4,2.415-5.4,5.4v34.198c0,2.989,2.41,5.399,5.4,5.399c2.984,0,5.399-2.41,5.399-5.399v-34.198
			C259.893,344.883,257.467,342.468,254.494,342.468z"/>
	</g>
</g>
<g>
</g>
<g>
</g>
<g>
</g>
<g>
</g>
<g>
</g>
<g>
</g>
<g>
</g>
<g>
</g>
<g>
</g>
<g>
</g>
<g>
</g>
<g>
</g>
<g>
</g>
<g>
</g>
<g>
</g>
</svg>
